<svg id="Layer_1_1_" enable-background="new 0 0 64 64" height="512" viewBox="0 0 64 64" width="512" xmlns="http://www.w3.org/2000/svg"><path d="m30 8v48c0 2.76-2.24 5-5 5s-5-2.24-5-5c0-.07.02-.14.02-.22-.48.14-.99.22-1.52.22-3.04 0-5.5-2.46-5.5-5.5 0-.52.08-1.03.22-1.51-.08 0-.15.01-.22.01-3.31 0-6-2.69-6-6 0-1.6.63-3.06 1.66-4.13-3.23-.63-5.66-3.46-5.66-6.87s2.43-6.24 5.66-6.87c-1.03-1.07-1.66-2.53-1.66-4.13 0-3.31 2.69-6 6-6 .07 0 .14.01.22.01-.14-.48-.22-.99-.22-1.51 0-3.04 2.46-5.5 5.5-5.5.53 0 1.04.08 1.52.22 0-.08-.02-.15-.02-.22 0-2.76 2.24-5 5-5s5 2.24 5 5z" fill="#fda22e"/><path d="m55.34 25.13c3.23.63 5.66 3.46 5.66 6.87s-2.43 6.24-5.66 6.87c1.03 1.07 1.66 2.53 1.66 4.13 0 3.31-2.69 6-6 6-.07 0-.14-.01-.22-.01.14.48.22.99.22 1.51 0 3.04-2.46 5.5-5.5 5.5-.53 0-1.04-.08-1.52-.22 0 .08.02.15.02.22 0 2.76-2.24 5-5 5s-5-2.24-5-5v-48c0-2.76 2.24-5 5-5s5 2.24 5 5c0 .07-.02.14-.02.22.48-.14.99-.22 1.52-.22 3.04 0 5.5 2.46 5.5 5.5 0 .52-.08 1.03-.22 1.51.08 0 .15-.01.22-.01 3.31 0 6 2.69 6 6 0 1.6-.63 3.06-1.66 4.13z" fill="#fda22e"/><g fill="#2d366d"><path d="m45 22h-11v-2h9v-5h2z"/><path d="m34 27h15v2h-15z"/><path d="m34 34v2h5v13h2v-13h8v6h2v-8z"/><path d="m16 36h-2v-9h16v2h-14z"/><path d="m22 44h-2v-10h10v2h-8z"/><path d="m24 20v-5h-2v5h-7v2h7 1 7v-2z"/><path d="m30 52h-10v-6h2v4h8z"/><path d="m47 20h2v2h-2z"/><path d="m6 31h2v2h-2z"/><path d="m12 43h2v2h-2z"/><path d="m55 31h2v2h-2z"/></g><circle cx="44" cy="14" fill="#f82f45" r="2"/><circle cx="50" cy="28" fill="#f82f45" r="2"/><circle cx="40" cy="50" fill="#f82f45" r="2"/><circle cx="50" cy="43" fill="#f82f45" r="2"/><circle cx="23" cy="14" fill="#f82f45" r="2"/><circle cx="15" cy="37" fill="#f82f45" r="2"/><circle cx="21" cy="45" fill="#f82f45" r="2"/><circle cx="14" cy="21" fill="#f82f45" r="2"/></svg>