<svg id="Layer_1_1_" enable-background="new 0 0 64 64" height="512" viewBox="0 0 64 64" width="512" xmlns="http://www.w3.org/2000/svg"><g fill="#2d366d"><path d="m31 5h2v14h-2z"/><path d="m37 20h-2v-6.414l4-4v-4.586h2v5.414l-4 4z"/><path d="m41.414 21h-6.414v-2h5.586l7-7h11.414v2h-10.586z"/><path d="m36 23h23v2h-23z"/><path d="m29 20h-2v-5.586l-4-4v-5.414h2v4.586l4 4z"/><path d="m29 21h-6.414l-7-7h-10.586v-2h11.414l7 7h5.586z"/><path d="m5 23h23v2h-23z"/></g><circle cx="32" cy="23" fill="#f82f45" r="6"/><path d="m45 36.5c0-1.38 1.12-2.5 2.5-2.5.69 0 1.32.28 1.77.73s.73 1.08.73 1.77v19.5l-1 2v4h-19v-4l-4-4v-10l4-4v-14.5c0-1.381 1.119-2.5 2.5-2.5 1.381 0 2.5 1.119 2.5 2.5v11c0-1.38 1.12-2.5 2.5-2.5.69 0 1.32.28 1.77.73s.73 1.08.73 1.77c0-1.38 1.12-2.5 2.5-2.5.69 0 1.32.28 1.77.73s.73 1.08.73 1.77z" fill="#4bbee5"/><path d="m30 40c-.552 0-1 .448-1 1v6c0 .552.448 1 1 1 .552 0 1-.448 1-1v-6c0-.552-.448-1-1-1z" fill="#4198ce"/><path d="m45 36c-.552 0-1 .448-1 1v7c0 .552.448 1 1 1 .552 0 1-.448 1-1v-7c0-.552-.448-1-1-1z" fill="#4198ce"/><path d="m40 36c-.552 0-1 .448-1 1v7c0 .552.448 1 1 1 .552 0 1-.448 1-1v-7c0-.552-.448-1-1-1z" fill="#4198ce"/><path d="m35 36c-.552 0-1 .448-1 1v7c0 .552.448 1 1 1 .552 0 1-.448 1-1v-7c0-.552-.448-1-1-1z" fill="#4198ce"/><circle cx="32" cy="4" fill="#fda22e" r="2"/><circle cx="40" cy="4" fill="#fda22e" r="2"/><circle cx="60" cy="13" fill="#fda22e" r="2"/><circle cx="60" cy="24" fill="#fda22e" r="2"/><circle cx="24" cy="4" fill="#fda22e" r="2"/><circle cx="4" cy="13" fill="#fda22e" r="2"/><circle cx="4" cy="24" fill="#fda22e" r="2"/><path d="m22 27h2v2h-2z" fill="#2d366d"/><path d="m18 27h2v2h-2z" fill="#2d366d"/><path d="m14 27h2v2h-2z" fill="#2d366d"/></svg>