<svg id="Layer_1_1_" enable-background="new 0 0 64 64" height="512" viewBox="0 0 64 64" width="512" xmlns="http://www.w3.org/2000/svg"><path d="m55.91 24h-23.91v-22c12.57 0 22.9 9.68 23.91 22z" fill="#3c7eb0"/><path d="m32 2v22h-23.91c1.01-12.32 11.34-22 23.91-22z" fill="#4bbee5"/><path d="m5 38h54v6h-54z" fill="#d22435"/><path d="m5 57h54v5h-54z" fill="#d22435"/><path d="m3 43h58v15h-58z" fill="#f82f45"/><path d="m39 47h18v6h-18z" fill="#fda22e"/><path d="m3 24h58v15h-58z" fill="#f82f45"/><path d="m39 28h18v6h-18z" fill="#fda22e"/><g fill="#2d366d"><path d="m49.938 23.941c-.104-1.772-.339-3.483-.685-5.121 1.77-.48 3.457-1.034 5.035-1.661l.012-.005c-.247-.623-.512-1.237-.809-1.833-1.478.584-3.054 1.104-4.708 1.555-.588-2.121-1.373-4.092-2.326-5.873 1.016-.306 2.002-.635 2.926-1.006l.361-.145c-.491-.54-1.007-1.057-1.545-1.55-.887.339-1.815.65-2.785.929-1.649-2.55-3.675-4.604-5.956-6.025-2.351-.769-4.851-1.206-7.458-1.206s-5.107.437-7.458 1.207c-2.281 1.421-4.307 3.475-5.956 6.025-.97-.279-1.899-.59-2.785-.929-.538.493-1.054 1.01-1.545 1.55l.361.145c.923.371 1.91.7 2.926 1.006-.953 1.781-1.739 3.753-2.326 5.873-1.655-.451-3.23-.971-4.708-1.555-.297.596-.562 1.21-.809 1.833l.012.005c1.578.627 3.266 1.181 5.035 1.661-.346 1.638-.581 3.348-.685 5.121l-.004.058h2.005c.098-1.622.324-3.189.647-4.696 1.869.435 3.813.791 5.814 1.061-.204 1.162-.371 2.347-.452 3.569l-.004.066h2.007c.08-1.16.227-2.298.427-3.406 2.128.224 4.3.354 6.498.385v3.021h1 1v-3.021c2.198-.03 4.37-.161 6.498-.385.201 1.108.347 2.245.427 3.406h2.007l-.004-.066c-.081-1.222-.248-2.407-.452-3.569 2.001-.27 3.945-.626 5.814-1.061.323 1.507.549 3.075.647 4.696h2.005zm-20.124-20.697c-1.124 1.603-2.735 4.16-4.207 7.376-1.69-.201-3.326-.481-4.884-.837 2.42-3.47 5.588-5.833 9.091-6.539zm-6.89 15.159c-1.976-.262-3.891-.612-5.732-1.039.603-2.11 1.421-4.056 2.409-5.799 1.653.405 3.385.735 5.184.97-.726 1.803-1.371 3.77-1.861 5.868zm8.076.576c-2.056-.029-4.087-.148-6.077-.35.511-2.101 1.193-4.073 1.946-5.867 1.356.124 2.737.193 4.131.218zm0-8c-1.099-.02-2.189-.065-3.262-.149 1.134-2.374 2.322-4.34 3.262-5.75zm12.277-1.196c-1.559.356-3.195.635-4.884.837-1.472-3.215-3.083-5.773-4.207-7.376 3.503.706 6.671 3.069 9.091 6.539zm-10.277-4.707c.941 1.409 2.13 3.377 3.265 5.754-1.074.084-2.165.13-3.265.149zm0 13.903v-6c1.396-.024 2.778-.094 4.135-.218.752 1.793 1.434 3.766 1.944 5.867-1.991.203-4.023.322-6.079.351zm8.076-.576c-.49-2.098-1.135-4.065-1.861-5.868 1.799-.235 3.531-.565 5.184-.97.988 1.743 1.806 3.689 2.409 5.799-1.841.427-3.756.777-5.732 1.039z"/><path d="m7 28h4v2h-4z"/><path d="m7 32h4v2h-4z"/><path d="m13 28h4v2h-4z"/><path d="m13 32h4v2h-4z"/><path d="m19 28h4v2h-4z"/><path d="m19 32h4v2h-4z"/><path d="m25 28h4v2h-4z"/><path d="m25 32h4v2h-4z"/><path d="m31 28h4v2h-4z"/><path d="m31 32h4v2h-4z"/><path d="m7 47h4v2h-4z"/><path d="m7 51h4v2h-4z"/><path d="m13 47h4v2h-4z"/><path d="m13 51h4v2h-4z"/><path d="m19 47h4v2h-4z"/><path d="m19 51h4v2h-4z"/><path d="m25 47h4v2h-4z"/><path d="m25 51h4v2h-4z"/><path d="m31 47h4v2h-4z"/><path d="m31 51h4v2h-4z"/></g></svg>