<svg id="Layer_1_1_" enable-background="new 0 0 64 64" height="512" viewBox="0 0 64 64" width="512" xmlns="http://www.w3.org/2000/svg"><path d="m15 7h34v50h-34z" fill="#d5dbdb"/><path d="m27 26v10h-5v4l-5-4h-15v-10z" fill="#4bbee5"/><path d="m57 33v15h-16l-5 4v-4h-5v-15z" fill="#f82f45"/><path d="m62 13v10h-21l-5 4v-4h-5v-10z" fill="#fda22e"/><path d="m49 57v1c0 2.21-1.79 4-4 4h-26c-2.21 0-4-1.79-4-4v-1z" fill="#3c7eb0"/><path d="m49 6v1h-34v-1c0-2.21 1.79-4 4-4h26c2.21 0 4 1.79 4 4z" fill="#3c7eb0"/><g fill="#2d366d"><path d="m35 17h8v2h-8z"/><path d="m46 17h12v2h-12z"/><path d="m21 30h2v2h-2z"/><path d="m6 30h13v2h-13z"/><path d="m35 37h9v2h-9z"/><path d="m46 37h7v2h-7z"/><path d="m35 42h4v2h-4z"/><path d="m41 42h12v2h-12z"/><path d="m26 17h2v2h-2z"/><path d="m22 17h2v2h-2z"/><path d="m18 17h2v2h-2z"/><path d="m26 45h2v2h-2z"/><path d="m22 45h2v2h-2z"/><path d="m18 45h2v2h-2z"/></g></svg>