<svg id="Layer_1_1_" enable-background="new 0 0 64 64" height="512" viewBox="0 0 64 64" width="512" xmlns="http://www.w3.org/2000/svg"><path d="m43 36c0 4.42-3.58 8-8 8s-8-3.58-8-8 3.58-8 8-8c.65 0 1.28.08 1.88.22h.01c3.51.85 6.11 4.01 6.11 7.78z" fill="#4bbee5"/><circle cx="35" cy="36" fill="#3c7eb0" r="4"/><path d="m11 16c1.21.91 2 2.37 2 4 0 2.76-2.24 5-5 5-.61 0-1.2-.11-1.74-.31l-1.25-.68-.01-.01c-1.21-.91-2-2.37-2-4 0-2.63 2.04-4.8 4.63-4.98.12-.02.24-.02.37-.02 1.13 0 2.17.37 3 1z" fill="#4bbee5"/><path d="m47 55c2.21 0 4 1.79 4 4v3h-38v-3c0-2.21 1.79-4 4-4z" fill="#4bbee5"/><path d="m43 36 2 19h-26l8-19c0 4.42 3.58 8 8 8s8-3.58 8-8z" fill="#fda22e"/><path d="m11 16 25.88 12.22c-.6-.14-1.23-.22-1.88-.22-4.42 0-8 3.58-8 8l-20.74-11.31c.54.2 1.13.31 1.74.31 2.76 0 5-2.24 5-5 0-1.63-.79-3.09-2-4z" fill="#fda22e"/><path d="m27 36c0-4.42 3.58-8 8-8 .65 0 1.28.08 1.88.22l-4.14-1.954c-4.099.948-7.233 4.406-7.683 8.675z" fill="#fc7a30"/><path d="m7.63 15.02 34.89-7.99c-.33.58-.52 1.26-.52 1.97 0 1.76 1.13 3.25 2.71 3.78l-23.55 8.02-10.16-4.8c-.83-.63-1.87-1-3-1-.13 0-.25 0-.37.02z" fill="#fda22e"/><path d="m12.027 14.273c-.1-.071-.211-.123-.314-.188l-4.083.935c.12-.02.24-.02.37-.02 1.13 0 2.17.37 3 1l10.16 4.8 2.724-.928z" fill="#fc7a30"/><path d="m13 60h38v2h-38z" fill="#4198ce"/><path d="m61.737 6.965-10.529-2.872-3.608 2.707-1.2-1.6 4.392-3.293 11.471 3.128z" fill="#2d366d"/><path d="m50.792 16.093-4.392-3.293 1.2-1.6 3.608 2.707 10.529-2.872.526 1.93z" fill="#2d366d"/><path d="m46 5c2.21 0 4 1.79 4 4s-1.79 4-4 4c-.45 0-.88-.08-1.29-.22-1.58-.53-2.71-2.02-2.71-3.78 0-.71.19-1.39.52-1.97h.01c.68-1.21 1.98-2.03 3.47-2.03z" fill="#4bbee5"/><path d="m42 9c0-.71.19-1.39.52-1.97l-2.339.536c-.114.462-.181.942-.181 1.434 0 1.876.866 3.535 2.211 4.631l2.499-.851c-1.58-.53-2.71-2.02-2.71-3.78z" fill="#fc7a30"/><g fill="#2d366d"><path d="m45 8h2v2h-2z"/><path d="m39 50h2v2h-2z"/><path d="m35 50h2v2h-2z"/><path d="m31 50h2v2h-2z"/><path d="m7 19h2v2h-2z"/></g><path d="m19 55h26l-.211-2h-24.947z" fill="#fc7a30"/></svg>