<svg id="Layer_1_1_" enable-background="new 0 0 64 64" height="512" viewBox="0 0 64 64" width="512" xmlns="http://www.w3.org/2000/svg"><g fill="#fda22e"><path d="m31 49h2v9h-2z"/><path d="m42 58h-2v-1.586l-3-3v-5.414h2v4.586l3 3z"/><path d="m51 58h-2v-1.586l-5-5v-7.414h2v6.586l5 5z"/><path d="m59 58h-2v-1.586l-7-7v-11.414h2v10.586l7 7z"/><path d="m24 58h-2v-2.414l3-3v-5.586h2v6.414l-3 3z"/><path d="m15 58h-2v-2.414l5-5v-7.076h2v7.904l-5 5z"/><path d="m7 58h-2v-2.414l7-7v-10.586h2v11.414l-7 7z"/><path d="m57 60h2v2h-2z"/><path d="m49 60h2v2h-2z"/><path d="m40 60h2v2h-2z"/><path d="m5 60h2v2h-2z"/><path d="m13 60h2v2h-2z"/><path d="m22 60h2v2h-2z"/><path d="m31 60h2v2h-2z"/></g><circle cx="32" cy="26" fill="#4bbee5" r="24"/><path d="m32 2c13.25 0 24 10.75 24 24s-10.75 24-24 24z" fill="#3c7eb0"/><path d="m49.24 18.824c1.774-.481 3.466-1.036 5.049-1.664l.018-.007c-.248-.623-.519-1.234-.816-1.83-1.486.587-3.071 1.11-4.736 1.563-.597-2.108-1.389-4.08-2.354-5.865 1.036-.31 2.041-.645 2.981-1.023l.368-.148c-.491-.54-1.008-1.056-1.546-1.549-.907.347-1.858.665-2.853.949-1.696-2.605-3.783-4.709-6.128-6.141-2.28-.719-4.706-1.109-7.223-1.109s-4.943.39-7.223 1.109c-2.345 1.433-4.431 3.536-6.128 6.141-.995-.284-1.946-.602-2.853-.949-.537.493-1.054 1.009-1.546 1.549l.367.147c.94.378 1.946.713 2.981 1.023-.965 1.785-1.758 3.757-2.354 5.865-1.665-.453-3.25-.976-4.736-1.563-.297.596-.568 1.207-.816 1.83l.018.007c1.582.628 3.274 1.183 5.049 1.664-.426 1.969-.68 4.038-.741 6.176h-5.993c-.013.333-.025.666-.025 1.001s.012.668.025 1h5.993c.061 2.138.316 4.208.741 6.176-1.774.481-3.466 1.036-5.049 1.664l-.018.007c.248.623.519 1.234.816 1.83 1.486-.587 3.071-1.11 4.736-1.563.597 2.108 1.389 4.08 2.354 5.865-1.036.31-2.041.645-2.981 1.023l-.367.148c.491.54 1.008 1.056 1.546 1.549.907-.347 1.858-.665 2.853-.949 1.696 2.605 3.783 4.709 6.128 6.141 2.28.719 4.706 1.109 7.223 1.109s4.943-.39 7.223-1.109c2.345-1.433 4.431-3.536 6.127-6.141.995.284 1.946.602 2.853.949.538-.493 1.055-1.009 1.546-1.549l-.367-.147c-.94-.378-1.946-.713-2.981-1.023.965-1.785 1.758-3.757 2.354-5.865 1.665.453 3.25.976 4.736 1.563.297-.596.568-1.207.816-1.83l-.018-.007c-1.582-.628-3.274-1.183-5.049-1.664.426-1.969.68-4.038.741-6.176h5.993c.014-.333.026-.666.026-1.001s-.012-.668-.025-1h-5.993c-.061-2.138-.316-4.208-.742-6.176zm-19.407-15.607c-1.127 1.603-2.755 4.163-4.238 7.402-1.703-.203-3.351-.487-4.921-.848 2.417-3.485 5.605-5.859 9.159-6.554zm-10.271 8.338c1.661.408 3.401.741 5.211.978-.726 1.802-1.376 3.772-1.865 5.867-1.976-.262-3.891-.613-5.731-1.041.596-2.108 1.403-4.061 2.385-5.804zm-2.867 7.744c1.869.435 3.811.792 5.812 1.062-.263 1.496-.435 3.046-.486 4.639h-6.003c.059-1.974.291-3.885.677-5.701zm-.677 7.701h6.003c.051 1.593.224 3.142.486 4.639-2.001.27-3.943.627-5.812 1.062-.386-1.816-.618-3.727-.677-5.701zm1.158 7.641c1.84-.428 3.755-.778 5.731-1.041.489 2.096 1.14 4.065 1.865 5.867-1.809.237-3.55.569-5.211.978-.981-1.743-1.788-3.696-2.385-5.804zm3.498 7.588c1.57-.36 3.218-.644 4.921-.848 1.483 3.239 3.111 5.798 4.238 7.402-3.554-.695-6.742-3.069-9.159-6.554zm10.326 4.695c-.94-1.409-2.13-3.378-3.264-5.754 1.074-.084 2.165-.129 3.264-.149zm0-7.903c-1.393.024-2.773.094-4.127.217-.754-1.795-1.44-3.762-1.952-5.866 1.991-.203 4.023-.322 6.079-.351zm0-8c-2.196.03-4.367.161-6.493.384-.259-1.424-.42-2.898-.473-4.405h6.966zm0-6.021h-6.966c.053-1.507.215-2.981.474-4.405 2.126.223 4.296.354 6.492.384zm0-6.021c-2.056-.029-4.087-.148-6.077-.35.513-2.104 1.2-4.07 1.955-5.866 1.353.123 2.731.192 4.122.217zm0-8c-1.098-.02-2.188-.065-3.26-.149 1.133-2.372 2.321-4.34 3.26-5.75zm15.824 6.38c-1.84.428-3.755.778-5.731 1.041-.489-2.096-1.14-4.065-1.865-5.867 1.809-.237 3.55-.569 5.21-.978.982 1.743 1.789 3.696 2.386 5.804zm-3.498-7.588c-1.57.36-3.218.644-4.921.848-1.483-3.239-3.111-5.798-4.238-7.402 3.554.695 6.742 3.069 9.159 6.554zm-10.326-4.695c.94 1.409 2.13 3.378 3.264 5.754-1.074.084-2.165.129-3.264.149zm0 7.903c1.393-.024 2.773-.094 4.127-.217.754 1.795 1.44 3.762 1.952 5.866-1.991.203-4.023.322-6.079.351zm0 8c2.196-.03 4.367-.161 6.493-.384.259 1.424.42 2.898.473 4.405h-6.966zm0 6.021h6.966c-.053 1.507-.215 2.981-.474 4.405-2.126-.223-4.296-.354-6.492-.384zm0 6.021c2.056.029 4.087.148 6.077.35-.513 2.104-1.2 4.07-1.955 5.866-1.353-.123-2.731-.192-4.122-.217zm0 8c1.098.02 2.187.065 3.26.149-1.133 2.372-2.321 4.34-3.26 5.75zm1.167 7.762c1.127-1.603 2.755-4.163 4.238-7.402 1.703.203 3.351.487 4.921.848-2.417 3.485-5.605 5.859-9.159 6.554zm10.271-8.338c-1.661-.408-3.401-.741-5.21-.978.726-1.802 1.376-3.772 1.865-5.867 1.976.262 3.891.613 5.731 1.041-.597 2.108-1.404 4.061-2.386 5.804zm2.867-7.744c-1.869-.435-3.811-.792-5.812-1.062.263-1.496.435-3.046.486-4.639h6.003c-.059 1.974-.291 3.885-.677 5.701zm-5.325-7.701c-.051-1.593-.224-3.142-.486-4.639 2.001-.27 3.943-.627 5.812-1.062.385 1.816.618 3.726.677 5.701z" fill="#2d366d"/></svg>